<svg height="64" viewBox="0 0 64 64" width="64" xmlns="http://www.w3.org/2000/svg"><g fill="none" fill-rule="evenodd" transform="translate(5 5)"><path d="m0 54h52v-28h-52z" fill="#fff"/><path d="m4 50h4v-4h-4z" fill="#4baadc"/><path d="m12 50h28v-4h-28z" fill="#4baadc"/><path d="m4 42h4v-4h-4z" fill="#4baadc"/><path d="m4 34h4v-4h-4z" fill="#4baadc"/><path d="m12 42h4v-4h-4z" fill="#4baadc"/><path d="m12 34h4v-4h-4z" fill="#4baadc"/><path d="m20 42h4v-4h-4z" fill="#4baadc"/><path d="m20 34h4v-4h-4z" fill="#4baadc"/><path d="m28 42h4v-4h-4z" fill="#4baadc"/><path d="m28 34h4v-4h-4z" fill="#4baadc"/><path d="m36 42h4v-4h-4z" fill="#4baadc"/><path d="m36 34h4v-4h-4z" fill="#4baadc"/><path d="m44 42h4v-4h-4z" fill="#4baadc"/><path d="m44 50h4v-4h-4z" fill="#4baadc"/><path d="m44 34h4v-4h-4z" fill="#4baadc"/><g stroke-linecap="round" stroke-linejoin="round" stroke-width="2"><path d="m14 0c0 3.313 2.687 6 6 6h18c3.313 0 6 2.687 6 6s-2.687 6-6 6h-6c-3.313 0-6 2.687-6 6v2" stroke="#4baadc"/><path d="m0 54h52v-28h-52z" stroke="#1e69a0"/><path d="m4 50h4v-4h-4z" stroke="#1e69a0"/><path d="m12 50h28v-4h-28z" stroke="#1e69a0"/><path d="m4 42h4v-4h-4z" stroke="#1e69a0"/><path d="m4 34h4v-4h-4z" stroke="#1e69a0"/><path d="m12 42h4v-4h-4z" stroke="#1e69a0"/><path d="m12 34h4v-4h-4z" stroke="#1e69a0"/><path d="m20 42h4v-4h-4z" stroke="#1e69a0"/><path d="m20 34h4v-4h-4z" stroke="#1e69a0"/><path d="m28 42h4v-4h-4z" stroke="#1e69a0"/><path d="m28 34h4v-4h-4z" stroke="#1e69a0"/><path d="m36 42h4v-4h-4z" stroke="#1e69a0"/><path d="m36 34h4v-4h-4z" stroke="#1e69a0"/><path d="m44 42h4v-4h-4z" stroke="#1e69a0"/><path d="m44 50h4v-4h-4z" stroke="#1e69a0"/><path d="m44 34h4v-4h-4z" stroke="#1e69a0"/></g></g></svg>